<?xml version="1.0" encoding="UTF-8" standalone="no"?>
<svg
   xmlns:dc="http://purl.org/dc/elements/1.1/"
   xmlns:cc="http://creativecommons.org/ns#"
   xmlns:rdf="http://www.w3.org/1999/02/22-rdf-syntax-ns#"
   xmlns:svg="http://www.w3.org/2000/svg"
   xmlns="http://www.w3.org/2000/svg"
   xmlns:sodipodi="http://sodipodi.sourceforge.net/DTD/sodipodi-0.dtd"
   xmlns:inkscape="http://www.inkscape.org/namespaces/inkscape"
   width="140"
   height="100"
   viewBox="0 0 140 100"
   id="svg3037"
   version="1.1"
   inkscape:version="0.48.4 r9939"
   sodipodi:docname="yandex.svg">
  <metadata
     id="metadata3049">
    <rdf:RDF>
      <cc:Work
         rdf:about="">
        <dc:format>image/svg+xml</dc:format>
        <dc:type
           rdf:resource="http://purl.org/dc/dcmitype/StillImage" />
      </cc:Work>
    </rdf:RDF>
  </metadata>
  <defs
     id="defs3047" />
  <sodipodi:namedview
     pagecolor="#ffffff"
     bordercolor="#666666"
     borderopacity="1"
     objecttolerance="10"
     gridtolerance="10"
     guidetolerance="10"
     inkscape:pageopacity="0"
     inkscape:pageshadow="2"
     inkscape:window-width="1920"
     inkscape:window-height="1021"
     id="namedview3045"
     showgrid="false"
     inkscape:zoom="6.0386919"
     inkscape:cx="74.327712"
     inkscape:cy="42.272838"
     inkscape:window-x="0"
     inkscape:window-y="0"
     inkscape:window-maximized="1"
     inkscape:current-layer="g3039"
     height="744.09px" />
  <g
     id="g3039"
     fill-rule="evenodd"
     fill="none">
    <g
       id="g3859"
       transform="translate(-10.012815,29.986193)">
      <path
         style="fill:#ffffff;fill-opacity:1"
         id="path3041"
         d="m 72.964,64.533 h -2.16 L 70.794,41.037 H 58.167 v 2.3 c 0,7.171 -0.26,15.47 -2.742,21.196 H 53.75 v 8.468 h 3.777 V 67.958 H 69.185 V 73 h 3.778 V 64.532 z M 89.74,63.01 c -1.08,0.75 -2.969,1.82 -5.343,1.82 -3.346,0 -5.073,-3.211 -5.073,-9.311 h 11.333 v -2.301 c 0,-9.15 -2.968,-12.522 -7.502,-12.522 -5.774,0 -8.203,6.314 -8.203,14.983 0,8.294 3.454,12.735 9.067,12.735 2.698,0 4.965,-0.856 6.692,-2.193 L 89.74,63.01 z M 46.636,41.003 v 11.511 h -6.26 v -11.51 h -4.21 v 26.969 h 4.21 V 55.807 h 6.26 v 12.166 h 4.156 v -26.97 h -4.156 z m 59.629,26.96 h 4.587 l -7.717,-14.288 6.746,-12.682 h -4.264 l -6.53,12.468 V 40.993 h -4.21 v 26.97 h 4.21 V 54.53 l 7.178,13.431 z m 20.48,-1.688 -0.972,-3.104 c -0.972,0.856 -2.537,1.659 -4.587,1.659 -3.4,0 -5.02,-3.853 -5.02,-10.595 0,-6.796 2.16,-10.167 5.181,-10.167 1.727,0 3.346,0.91 4.48,1.873 l 0.594,-3.96 c -1.188,-0.749 -2.591,-1.391 -5.02,-1.391 -6.368,0 -9.66,5.404 -9.66,13.859 0,9.204 3.508,13.86 9.337,13.86 2.482,0 4.21,-0.803 5.666,-2.034 z M 66.697,64.628 H 59.465 C 61.73,58.903 62,50.608 62,44.936 v -0.481 h 4.696 V 64.628 z M 86.302,52.144 H 79.34 c 0.27,-4.816 1.187,-7.973 3.777,-7.973 2.429,0 3.185,3.371 3.185,7.973 z"
         inkscape:connector-curvature="0" />
      <path
         id="path3043"
         d="m 26.841,53.707 v 14.288 h 4.156 V 30.004 H 24.79 c -6.098,0 -11.225,4.119 -11.225,12.145 0,5.726 2.267,8.83 5.667,10.542 L 12,67.995 h 4.803 l 6.584,-14.288 h 3.454 z m -0.013,-3.333 h -2.212 c -3.616,0 -6.585,-1.98 -6.585,-8.134 0,-6.367 3.238,-8.64 6.585,-8.64 h 2.212 v 16.774 z"
         inkscape:connector-curvature="0"
         style="fill:#ff0000" />
    </g>
  </g>
</svg>
